<?xml version="1.0" encoding="utf-8"?>
<!-- Generator: Adobe Illustrator 23.0.0, SVG Export Plug-In . SVG Version: 6.00 Build 0)  -->
<svg version="1.1" id="Calque_1" xmlns="http://www.w3.org/2000/svg" xmlns:xlink="http://www.w3.org/1999/xlink" x="0px" y="0px"
	 viewBox="0 0 143.3 182.5" style="enable-background:new 0 0 143.3 182.5;" xml:space="preserve">
<style type="text/css">
	.st0{fill:#FFFFFF;stroke:#FFFFFF;stroke-miterlimit:10;}
</style>
<title>Fichier 7</title>
<g>
	<g id="Calque_1-2">
		<path class="st0" d="M61.4,99c-8,2.1-14.7,7.1-22.7,9.2c-2.4,0.6-4.2,1.1-5.7-1.1c-1.7-2.4-0.8-4.8,1.1-6.6
			c4.6-4.3,10.5-7,15.6-10.6c0.4-0.3,0.8-0.6,1.2-1c-1.8-1.7-4.7-2.5-4.7-5.8c-5.3,2.5-10.7,4.6-16.2,6.5c-2.3,0.8-4.7,1.3-7.1,1.6
			c-1.5,0.2-3.1-0.4-4-1.6c-0.8-2,0.3-4,1.7-5.6c2.3-2.7,5.8-3.9,8.6-6c1.5-1.1,7.3-4.4,6.7-4.1c4.4-1.9-11,3.2-15.4,2.7
			c-1.9-0.1-3.6-1.1-4.7-2.6c-0.9-1.3,0.1-2.6,0.6-3.8c0.3-0.5,0.8-0.9,1.4-1.2c9.1-4.4,17.9-9.4,27.5-12.8c5.7-2,11.4-1.1,17.3-1.5
			V26.3c-6.7,0-13.4-0.2-20.1,0.1c-3.8,0.2-4.7-1.2-4.5-4.7c0.3-6.8-0.8-20.5,1.1-20.6c8.5-0.5,17.2-1.4,26-1
			C69.2,0.3,73.5,0,77.5,0c4.7-0.1,7.6,0.7,9.9,4.7c3.5,6,9.3,7.7,15.5,8.9c2.8,0.5,5.7,0.4,8.4,0.9c2.4,0.4,4.4,1.5,4.3,4.6
			c-0.1,2.6,0,4.6-3.6,5.3c-3.4,0.6-6.7,0.9-10.1,1.1C95.3,26,88.7,25.6,82,25.6v27.8c20.3-0.1,40.6,0.6,60.9-1.6
			c0.7,1.8,0.4,3.4,0.3,5.3c-20.2,0.3-40.3-1.6-60.5-0.5V64c2.1-1,4.1-2.3,5.7-4c1.7,0.8,2.2,1.6,0.7,3c-2.6,2.4-5.5,4.5-8.7,6
			c-5.9,3-11.9,5.7-18,8.7c2.6,2.3,1.3,3.7-0.9,5c-1.7-1,0.6-1.7-0.5-3c-4-1.7-6.7,1.9-10.5,3.3c4.1,4.5,8.7,3.6,13.1,2.4
			c7.2-2,14.4-3.9,21.3-6.9c0.7-0.3,1.4-0.4,2.2-0.3c8.3,2.6,16.5,1.7,25.4-0.7c-3.4,4-7.5,4.8-11.7,5c-4.3,0.3-8.7,0.1-12.9-0.6
			c-3.1-0.5-4.8,0.6-4.5,4.2c0.3,4.5,0.1,9,0.1,13.8c6.7-0.5,12.2-3.5,17.5-6.8c3.2-2.1,6.1-4.5,8.8-7.2c1.6-1.5,3.3-1.2,4.9-1
			c6.2,0.8,12.5,1.3,18.8,1.4c3.3,0.1,6.6,0.5,9.9,1.2c0.3,1.2,0.3,2.4-0.1,3.6c-6.9-1.6-14-1.3-21.1-2.2
			c-6.2-0.8-12.1-0.6-17.2,4.2c-5.2,4.9-12.1,7-18.7,9c-2,0.6-2.7,1.1-2.7,3.1c0.1,8.4,0,16.7,0,24.9c0.5,0.9,1.2,0.7,1.8,0.6
			c1.9-0.1,3.9,0.6,3.3,2.4c-0.2,0.9-0.6,1.7-1.3,2.4c-1,1.4-3.9,2.1-4.2,4.5c3.3-0.2,6.7-1.8,9.7-2.5c1.7-0.4,2-0.5,2.9,0.5
			c1.4,1.4,0.5,2.9-0.2,3.8c-2.3,2.7-5.3,3.6-9.1,5.6c-1.2,0.6-4.4,1.8-4.4,1.8c2.8-0.3,5.6-0.8,8.3-1.7c1.6-0.4,3.4-1,4.3,0.9
			s-0.4,3.1-1.7,4.1c-1.9,1.3-3.9,2.4-6.1,3.1c-1.3,0.4-4.9,1.9-3.6,1.9s4.1,0.3,4.8,1c0.8,1.5-1.2,3.5-2.2,4.1
			c-3.1,1.7-2.4,3.1-2.5,6.2c0,1.8,0.1,3.4,0,5.5c-0.3,6.7-3.6,7.5-6,8.1c-3.2,0.9-6.7,0.4-9.6-1.3c-2.4-1.2-3.8-3.7-3.7-6.4
			c0.1-2.5,0-5,0-7.8c-3.9,0-7.6,0.2-11.3,0c-7.4-0.5-14.9-0.9-21.3-5.2c-3.7-2.4-7-1.7-10.6,0.1c-6.3,3.1-12.6,5.9-19,8.8
			c-0.4,0.2-1,0.9-1.5,0v-2.3c8-3.6,16-7.3,24-10.8c1.7-0.7,3.6-0.6,5.2,0.4c3.3,1.9,6.9,3.3,10.6,4.3c12.8,3.1,25.8,1.5,38.7,0.7
			c2.7-0.1,5.2-1.3,6.8-3.4c-4.8-1.9-9.7-0.5-14.9-1.3c7.4-0.5,14.6-3.1,20.6-7.6l1-1.3c-4,1.1-8.1,1.9-12.2,2.5
			c-4.2,0.7-8.6,0.8-12.8,0.3c1-1.1,2.3-1.8,3.7-2c7.3-1.3,14.8-3.2,21-7.3c1.8-1.2,3.3-1.6,2.8-4c0,0-20.7,6.1-31.3,5.5
			c3.5-3.3,8.3-2.9,12.4-4.2c4.4-1.4,8.7-2.8,11.1-7.4c-13.5,3.2-28,8.8-40.7,4.2c-0.1-0.7,0.3-1.4,0.9-1.6c3-2,6-4,9.1-6
			c8-5.1,7.7-4,6.8-9.6c-4.8,2.6-9.4,5.5-14.3,7.8c-14,6.7-28.1,13.3-42.2,19.8c-1.9,0.9-3.7,2.6-6.2,2.1V147
			c18.4-8.4,36.7-16.9,54.6-26.2c1.9-1,3.9-1.9,5.7-3.1c2.1-1.3,3.7-3,2.3-5.9c-2.5,0.9-4.9,1.9-7.4,2.7c-1.8,0.6-3.7,0.4-4.5-1.4
			c-1-1.7-0.7-3.7,0.6-5.1c2.2-2.5,5.1-4.1,7.8-5.9c1.1-0.8,2.1-1.7,3-2.7 M42.1,21.8c22.3-0.1,44.3,0.3,66.3-0.7
			c2.6-0.1,2.9-1.8,2.4-3.5c-0.1-0.6-4.7-1.1-7.2-1.1c-8.9-0.1-16.5-3.2-21.3-11.1c-1.3-2.1-2.5-2-4.6-1.9c-8.4,0.5-17,0.6-25.4,0.3
			C48.9,3.8,45.4,3.5,42,5L42.1,21.8z M79.5,83.8C76,85,72.9,86.5,69.6,87c-2.6,0.4-3,1.4-2.9,3.6c0.1,7.5,0,15,0,22.4v22
			c4.3,0.2,7.9-1.4,11.6-2.3c1-0.3,1.2-1.4,1.2-2.5C79.5,114.9,79.5,99.6,79.5,83.8L79.5,83.8z M78.8,65.6V36.3
			c0-11.4-0.4-11.3-11.8-10.6c-0.1,0,0.2-0.2,0,0v45.4L78.8,65.6z M62.9,58.2c-16.3-2.5-28.5,6-41.5,13.4c-4.2,2.4,4.9,1.4,7.3,0.9
			c7.8-1.5,15.2-4.8,23.2-5.8c3.6-0.5,7.7,0.7,11.1-1.7L62.9,58.2L62.9,58.2z M62.9,69.4C54.7,68.3,47,69,40.5,74.7
			c-1.6,1.4,1.9-1.3,0,0c-4.2,2.9-14.7,7.8-18,12.3c0,0.8,0,2.1,2.1,1.4c12.5-3.9,24.8-8.1,36.4-14.5C63.3,72.6,63.1,71.2,62.9,69.4
			L62.9,69.4z M79.5,165.1c-1.4,0-2.4-0.1-3.4,0c-8.6,0.6-8.6,0.6-8.6,8.4c0,5.1,3.9,7.8,9,6.3c2.9-1.3,2.9-1.3,3.1-4
			C79.9,172.4,79.5,168.9,79.5,165.1z M36.3,105.1c0.8,0,1.6,0,2.4-0.2c7.4-2.8,14.5-6.1,21.5-9.9c2.7-1.4,3.6-2.8,2.4-5.9
			c-2.9,1.6-6.7,0.9-9.3,2.4c-5,3-10.1,6.1-15.1,9.1C36.5,101.6,35.5,102.8,36.3,105.1L36.3,105.1z M63,102.2
			c-3.6,1.3-6.9,3.3-9.6,6c-0.7,0.8-1.3,1.6-0.8,2.6c0.4,0.8,1.3,1,2.2,1.1c3.1,0.3,5.5-1.4,7.5-3.2C64,107.1,62.7,104.5,63,102.2z
			 M51.6,135.6c0.5,0,1,0.1,1.5,0.2c8.3,2.1,9.4,1.1,9.9-7.1c0-0.3,0.3-0.8-0.6-0.9 M73.2,142.2c2.6,0.6,3.7-0.1,6.5-1.5
			C76.3,139.9,75.5,141.9,73.2,142.2L73.2,142.2z"/>
		<path class="st0" d="M54.9,111.9c-0.9-0.1-1.8-0.2-2.2-1.1"/>
		<path class="st0" d="M63,102.2c-0.3,2.3,1,4.9-0.7,6.4"/>
		<path class="st0" d="M61.4,99l1.3-0.5l-0.7,1L61.4,99z"/>
	</g>
</g>
</svg>
