<?xml version="1.0" encoding="UTF-8" standalone="no"?>
<!DOCTYPE svg PUBLIC "-//W3C//DTD SVG 1.1//EN"
 "http://www.w3.org/Graphics/SVG/1.1/DTD/svg11.dtd">
<!-- Generated by graphviz version 2.38.0 (20140413.2041)
 -->
<!-- Title: controllers_diagram Pages: 1 -->
<svg width="739pt" height="817pt"
 viewBox="0.00 0.00 738.50 817.00" xmlns="http://www.w3.org/2000/svg" xmlns:xlink="http://www.w3.org/1999/xlink">
<g id="graph0" class="graph" transform="scale(1 1) rotate(0) translate(258.5 473)">
<title>controllers_diagram</title>
<polygon fill="none" stroke="none" points="-258.5,344 -258.5,-473 480,-473 480,344 -258.5,344"/>
<!-- _diagram_info -->
<g id="node1" class="node"><title>_diagram_info</title>
<text text-anchor="start" x="229" y="-97.6" font-family="Times,serif" font-size="13.00">Controllers diagram</text>
<text text-anchor="start" x="229" y="-83.6" font-family="Times,serif" font-size="13.00">Date: Apr 10 2020 &#45; 12:56</text>
<text text-anchor="start" x="229" y="-69.6" font-family="Times,serif" font-size="13.00">Migration version: 20200410102933</text>
<text text-anchor="start" x="229" y="-55.6" font-family="Times,serif" font-size="13.00">Generated by RailRoady 1.5.3</text>
<text text-anchor="start" x="229" y="-41.6" font-family="Times,serif" font-size="13.00">http://railroady.prestonlee.com</text>
</g>
<!-- AssosController -->
<g id="node2" class="node"><title>AssosController</title>
<path fill="none" stroke="black" d="M97,84.5C97,84.5 177,84.5 177,84.5 183,84.5 189,78.5 189,72.5 189,72.5 189,-116.5 189,-116.5 189,-122.5 183,-128.5 177,-128.5 177,-128.5 97,-128.5 97,-128.5 91,-128.5 85,-122.5 85,-116.5 85,-116.5 85,72.5 85,72.5 85,78.5 91,84.5 97,84.5"/>
<text text-anchor="middle" x="137" y="-113.3" font-family="Times,serif" font-size="14.00">AssosController</text>
<polyline fill="none" stroke="black" points="85,-105.5 189,-105.5 "/>
<text text-anchor="start" x="93" y="-90.3" font-family="Times,serif" font-size="14.00">create</text>
<text text-anchor="start" x="93" y="-75.3" font-family="Times,serif" font-size="14.00">destroy</text>
<text text-anchor="start" x="93" y="-60.3" font-family="Times,serif" font-size="14.00">edit</text>
<text text-anchor="start" x="93" y="-45.3" font-family="Times,serif" font-size="14.00">index</text>
<text text-anchor="start" x="93" y="-30.3" font-family="Times,serif" font-size="14.00">new</text>
<text text-anchor="start" x="93" y="-15.3" font-family="Times,serif" font-size="14.00">show</text>
<text text-anchor="start" x="93" y="-0.3" font-family="Times,serif" font-size="14.00">update</text>
<polyline fill="none" stroke="black" points="85,7.5 189,7.5 "/>
<polyline fill="none" stroke="black" points="85,31.5 189,31.5 "/>
<text text-anchor="start" x="93" y="46.7" font-family="Times,serif" font-size="14.00">_layout</text>
<text text-anchor="start" x="93" y="61.7" font-family="Times,serif" font-size="14.00">asso_params</text>
<text text-anchor="start" x="93" y="76.7" font-family="Times,serif" font-size="14.00">set_asso</text>
</g>
<!-- UsersController -->
<g id="node3" class="node"><title>UsersController</title>
<path fill="none" stroke="black" d="M233.5,220.5C233.5,220.5 312.5,220.5 312.5,220.5 318.5,220.5 324.5,214.5 324.5,208.5 324.5,208.5 324.5,19.5 324.5,19.5 324.5,13.5 318.5,7.5 312.5,7.5 312.5,7.5 233.5,7.5 233.5,7.5 227.5,7.5 221.5,13.5 221.5,19.5 221.5,19.5 221.5,208.5 221.5,208.5 221.5,214.5 227.5,220.5 233.5,220.5"/>
<text text-anchor="middle" x="273" y="22.7" font-family="Times,serif" font-size="14.00">UsersController</text>
<polyline fill="none" stroke="black" points="221.5,30.5 324.5,30.5 "/>
<text text-anchor="start" x="229.5" y="45.7" font-family="Times,serif" font-size="14.00">create</text>
<text text-anchor="start" x="229.5" y="60.7" font-family="Times,serif" font-size="14.00">destroy</text>
<text text-anchor="start" x="229.5" y="75.7" font-family="Times,serif" font-size="14.00">edit</text>
<text text-anchor="start" x="229.5" y="90.7" font-family="Times,serif" font-size="14.00">index</text>
<text text-anchor="start" x="229.5" y="105.7" font-family="Times,serif" font-size="14.00">new</text>
<text text-anchor="start" x="229.5" y="120.7" font-family="Times,serif" font-size="14.00">show</text>
<text text-anchor="start" x="229.5" y="135.7" font-family="Times,serif" font-size="14.00">update</text>
<polyline fill="none" stroke="black" points="221.5,143.5 324.5,143.5 "/>
<polyline fill="none" stroke="black" points="221.5,167.5 324.5,167.5 "/>
<text text-anchor="start" x="229.5" y="182.7" font-family="Times,serif" font-size="14.00">_layout</text>
<text text-anchor="start" x="229.5" y="197.7" font-family="Times,serif" font-size="14.00">set_user</text>
<text text-anchor="start" x="229.5" y="212.7" font-family="Times,serif" font-size="14.00">user_params</text>
</g>
<!-- ApplicationController -->
<g id="node4" class="node"><title>ApplicationController</title>
<path fill="none" stroke="black" d="M12,237.5C12,237.5 182,237.5 182,237.5 188,237.5 194,231.5 194,225.5 194,225.5 194,156.5 194,156.5 194,150.5 188,144.5 182,144.5 182,144.5 12,144.5 12,144.5 6,144.5 0,150.5 0,156.5 0,156.5 0,225.5 0,225.5 0,231.5 6,237.5 12,237.5"/>
<text text-anchor="middle" x="97" y="159.7" font-family="Times,serif" font-size="14.00">ApplicationController</text>
<polyline fill="none" stroke="black" points="0,167.5 194,167.5 "/>
<polyline fill="none" stroke="black" points="0,191.5 194,191.5 "/>
<text text-anchor="start" x="8" y="206.7" font-family="Times,serif" font-size="14.00">configure_permitted_parameters</text>
<polyline fill="none" stroke="black" points="0,214.5 194,214.5 "/>
<text text-anchor="start" x="8" y="229.7" font-family="Times,serif" font-size="14.00">_layout</text>
</g>
<!-- MetiersController -->
<g id="node5" class="node"><title>MetiersController</title>
<path fill="none" stroke="black" d="M-56,-136.5C-56,-136.5 34,-136.5 34,-136.5 40,-136.5 46,-142.5 46,-148.5 46,-148.5 46,-337.5 46,-337.5 46,-343.5 40,-349.5 34,-349.5 34,-349.5 -56,-349.5 -56,-349.5 -62,-349.5 -68,-343.5 -68,-337.5 -68,-337.5 -68,-148.5 -68,-148.5 -68,-142.5 -62,-136.5 -56,-136.5"/>
<text text-anchor="middle" x="-11" y="-334.3" font-family="Times,serif" font-size="14.00">MetiersController</text>
<polyline fill="none" stroke="black" points="-68,-326.5 46,-326.5 "/>
<text text-anchor="start" x="-60" y="-311.3" font-family="Times,serif" font-size="14.00">create</text>
<text text-anchor="start" x="-60" y="-296.3" font-family="Times,serif" font-size="14.00">destroy</text>
<text text-anchor="start" x="-60" y="-281.3" font-family="Times,serif" font-size="14.00">edit</text>
<text text-anchor="start" x="-60" y="-266.3" font-family="Times,serif" font-size="14.00">index</text>
<text text-anchor="start" x="-60" y="-251.3" font-family="Times,serif" font-size="14.00">new</text>
<text text-anchor="start" x="-60" y="-236.3" font-family="Times,serif" font-size="14.00">show</text>
<text text-anchor="start" x="-60" y="-221.3" font-family="Times,serif" font-size="14.00">update</text>
<polyline fill="none" stroke="black" points="-68,-213.5 46,-213.5 "/>
<polyline fill="none" stroke="black" points="-68,-189.5 46,-189.5 "/>
<text text-anchor="start" x="-60" y="-174.3" font-family="Times,serif" font-size="14.00">_layout</text>
<text text-anchor="start" x="-60" y="-159.3" font-family="Times,serif" font-size="14.00">metier_params</text>
<text text-anchor="start" x="-60" y="-144.3" font-family="Times,serif" font-size="14.00">set_metier</text>
</g>
<!-- Admins::SessionsController -->
<g id="node6" class="node"><title>Admins::SessionsController</title>
<path fill="none" stroke="black" d="M318,-153.5C318,-153.5 464,-153.5 464,-153.5 470,-153.5 476,-159.5 476,-165.5 476,-165.5 476,-264.5 476,-264.5 476,-270.5 470,-276.5 464,-276.5 464,-276.5 318,-276.5 318,-276.5 312,-276.5 306,-270.5 306,-264.5 306,-264.5 306,-165.5 306,-165.5 306,-159.5 312,-153.5 318,-153.5"/>
<text text-anchor="middle" x="391" y="-261.3" font-family="Times,serif" font-size="14.00">Admins::SessionsController</text>
<polyline fill="none" stroke="black" points="306,-253.5 476,-253.5 "/>
<text text-anchor="start" x="314" y="-238.3" font-family="Times,serif" font-size="14.00">create</text>
<text text-anchor="start" x="314" y="-223.3" font-family="Times,serif" font-size="14.00">destroy</text>
<text text-anchor="start" x="314" y="-208.3" font-family="Times,serif" font-size="14.00">new</text>
<polyline fill="none" stroke="black" points="306,-200.5 476,-200.5 "/>
<polyline fill="none" stroke="black" points="306,-176.5 476,-176.5 "/>
<text text-anchor="start" x="314" y="-161.3" font-family="Times,serif" font-size="14.00">_layout</text>
</g>
<!-- EventsController -->
<g id="node7" class="node"><title>EventsController</title>
<path fill="none" stroke="black" d="M182.5,-170.5C182.5,-170.5 267.5,-170.5 267.5,-170.5 273.5,-170.5 279.5,-176.5 279.5,-182.5 279.5,-182.5 279.5,-371.5 279.5,-371.5 279.5,-377.5 273.5,-383.5 267.5,-383.5 267.5,-383.5 182.5,-383.5 182.5,-383.5 176.5,-383.5 170.5,-377.5 170.5,-371.5 170.5,-371.5 170.5,-182.5 170.5,-182.5 170.5,-176.5 176.5,-170.5 182.5,-170.5"/>
<text text-anchor="middle" x="225" y="-368.3" font-family="Times,serif" font-size="14.00">EventsController</text>
<polyline fill="none" stroke="black" points="170.5,-360.5 279.5,-360.5 "/>
<text text-anchor="start" x="178.5" y="-345.3" font-family="Times,serif" font-size="14.00">create</text>
<text text-anchor="start" x="178.5" y="-330.3" font-family="Times,serif" font-size="14.00">destroy</text>
<text text-anchor="start" x="178.5" y="-315.3" font-family="Times,serif" font-size="14.00">edit</text>
<text text-anchor="start" x="178.5" y="-300.3" font-family="Times,serif" font-size="14.00">index</text>
<text text-anchor="start" x="178.5" y="-285.3" font-family="Times,serif" font-size="14.00">new</text>
<text text-anchor="start" x="178.5" y="-270.3" font-family="Times,serif" font-size="14.00">show</text>
<text text-anchor="start" x="178.5" y="-255.3" font-family="Times,serif" font-size="14.00">update</text>
<polyline fill="none" stroke="black" points="170.5,-247.5 279.5,-247.5 "/>
<polyline fill="none" stroke="black" points="170.5,-223.5 279.5,-223.5 "/>
<text text-anchor="start" x="178.5" y="-208.3" font-family="Times,serif" font-size="14.00">_layout</text>
<text text-anchor="start" x="178.5" y="-193.3" font-family="Times,serif" font-size="14.00">event_params</text>
<text text-anchor="start" x="178.5" y="-178.3" font-family="Times,serif" font-size="14.00">set_event</text>
</g>
<!-- ItemsController -->
<g id="node8" class="node"><title>ItemsController</title>
<path fill="none" stroke="black" d="M-242.5,254.5C-242.5,254.5 -163.5,254.5 -163.5,254.5 -157.5,254.5 -151.5,248.5 -151.5,242.5 -151.5,242.5 -151.5,53.5 -151.5,53.5 -151.5,47.5 -157.5,41.5 -163.5,41.5 -163.5,41.5 -242.5,41.5 -242.5,41.5 -248.5,41.5 -254.5,47.5 -254.5,53.5 -254.5,53.5 -254.5,242.5 -254.5,242.5 -254.5,248.5 -248.5,254.5 -242.5,254.5"/>
<text text-anchor="middle" x="-203" y="56.7" font-family="Times,serif" font-size="14.00">ItemsController</text>
<polyline fill="none" stroke="black" points="-254.5,64.5 -151.5,64.5 "/>
<text text-anchor="start" x="-246.5" y="79.7" font-family="Times,serif" font-size="14.00">create</text>
<text text-anchor="start" x="-246.5" y="94.7" font-family="Times,serif" font-size="14.00">destroy</text>
<text text-anchor="start" x="-246.5" y="109.7" font-family="Times,serif" font-size="14.00">edit</text>
<text text-anchor="start" x="-246.5" y="124.7" font-family="Times,serif" font-size="14.00">index</text>
<text text-anchor="start" x="-246.5" y="139.7" font-family="Times,serif" font-size="14.00">new</text>
<text text-anchor="start" x="-246.5" y="154.7" font-family="Times,serif" font-size="14.00">show</text>
<text text-anchor="start" x="-246.5" y="169.7" font-family="Times,serif" font-size="14.00">update</text>
<polyline fill="none" stroke="black" points="-254.5,177.5 -151.5,177.5 "/>
<polyline fill="none" stroke="black" points="-254.5,201.5 -151.5,201.5 "/>
<text text-anchor="start" x="-246.5" y="216.7" font-family="Times,serif" font-size="14.00">_layout</text>
<text text-anchor="start" x="-246.5" y="231.7" font-family="Times,serif" font-size="14.00">item_params</text>
<text text-anchor="start" x="-246.5" y="246.7" font-family="Times,serif" font-size="14.00">set_item</text>
</g>
<!-- RootController -->
<g id="node9" class="node"><title>RootController</title>
<path fill="none" stroke="black" d="M318,-306.5C318,-306.5 392,-306.5 392,-306.5 398,-306.5 404,-312.5 404,-318.5 404,-318.5 404,-387.5 404,-387.5 404,-393.5 398,-399.5 392,-399.5 392,-399.5 318,-399.5 318,-399.5 312,-399.5 306,-393.5 306,-387.5 306,-387.5 306,-318.5 306,-318.5 306,-312.5 312,-306.5 318,-306.5"/>
<text text-anchor="middle" x="355" y="-384.3" font-family="Times,serif" font-size="14.00">RootController</text>
<polyline fill="none" stroke="black" points="306,-376.5 404,-376.5 "/>
<text text-anchor="start" x="314" y="-361.3" font-family="Times,serif" font-size="14.00">index</text>
<polyline fill="none" stroke="black" points="306,-353.5 404,-353.5 "/>
<polyline fill="none" stroke="black" points="306,-329.5 404,-329.5 "/>
<text text-anchor="start" x="314" y="-314.3" font-family="Times,serif" font-size="14.00">_layout</text>
</g>
<!-- ToolsController -->
<g id="node10" class="node"><title>ToolsController</title>
<path fill="none" stroke="black" d="M-191.5,-255.5C-191.5,-255.5 -112.5,-255.5 -112.5,-255.5 -106.5,-255.5 -100.5,-261.5 -100.5,-267.5 -100.5,-267.5 -100.5,-456.5 -100.5,-456.5 -100.5,-462.5 -106.5,-468.5 -112.5,-468.5 -112.5,-468.5 -191.5,-468.5 -191.5,-468.5 -197.5,-468.5 -203.5,-462.5 -203.5,-456.5 -203.5,-456.5 -203.5,-267.5 -203.5,-267.5 -203.5,-261.5 -197.5,-255.5 -191.5,-255.5"/>
<text text-anchor="middle" x="-152" y="-453.3" font-family="Times,serif" font-size="14.00">ToolsController</text>
<polyline fill="none" stroke="black" points="-203.5,-445.5 -100.5,-445.5 "/>
<text text-anchor="start" x="-195.5" y="-430.3" font-family="Times,serif" font-size="14.00">create</text>
<text text-anchor="start" x="-195.5" y="-415.3" font-family="Times,serif" font-size="14.00">destroy</text>
<text text-anchor="start" x="-195.5" y="-400.3" font-family="Times,serif" font-size="14.00">edit</text>
<text text-anchor="start" x="-195.5" y="-385.3" font-family="Times,serif" font-size="14.00">index</text>
<text text-anchor="start" x="-195.5" y="-370.3" font-family="Times,serif" font-size="14.00">new</text>
<text text-anchor="start" x="-195.5" y="-355.3" font-family="Times,serif" font-size="14.00">show</text>
<text text-anchor="start" x="-195.5" y="-340.3" font-family="Times,serif" font-size="14.00">update</text>
<polyline fill="none" stroke="black" points="-203.5,-332.5 -100.5,-332.5 "/>
<polyline fill="none" stroke="black" points="-203.5,-308.5 -100.5,-308.5 "/>
<text text-anchor="start" x="-195.5" y="-293.3" font-family="Times,serif" font-size="14.00">_layout</text>
<text text-anchor="start" x="-195.5" y="-278.3" font-family="Times,serif" font-size="14.00">set_tool</text>
<text text-anchor="start" x="-195.5" y="-263.3" font-family="Times,serif" font-size="14.00">tool_params</text>
</g>
<!-- AteliersController -->
<g id="node11" class="node"><title>AteliersController</title>
<path fill="none" stroke="black" d="M-56.5,118C-56.5,118 34.5,118 34.5,118 40.5,118 46.5,112 46.5,106 46.5,106 46.5,-98 46.5,-98 46.5,-104 40.5,-110 34.5,-110 34.5,-110 -56.5,-110 -56.5,-110 -62.5,-110 -68.5,-104 -68.5,-98 -68.5,-98 -68.5,106 -68.5,106 -68.5,112 -62.5,118 -56.5,118"/>
<text text-anchor="middle" x="-11" y="-94.8" font-family="Times,serif" font-size="14.00">AteliersController</text>
<polyline fill="none" stroke="black" points="-68.5,-87 46.5,-87 "/>
<text text-anchor="start" x="-60.5" y="-71.8" font-family="Times,serif" font-size="14.00">create</text>
<text text-anchor="start" x="-60.5" y="-56.8" font-family="Times,serif" font-size="14.00">destroy</text>
<text text-anchor="start" x="-60.5" y="-41.8" font-family="Times,serif" font-size="14.00">edit</text>
<text text-anchor="start" x="-60.5" y="-26.8" font-family="Times,serif" font-size="14.00">index</text>
<text text-anchor="start" x="-60.5" y="-11.8" font-family="Times,serif" font-size="14.00">new</text>
<text text-anchor="start" x="-60.5" y="3.2" font-family="Times,serif" font-size="14.00">show</text>
<text text-anchor="start" x="-60.5" y="18.2" font-family="Times,serif" font-size="14.00">update</text>
<polyline fill="none" stroke="black" points="-68.5,26 46.5,26 "/>
<polyline fill="none" stroke="black" points="-68.5,50 46.5,50 "/>
<text text-anchor="start" x="-60.5" y="65.2" font-family="Times,serif" font-size="14.00">_layout</text>
<text text-anchor="start" x="-60.5" y="80.2" font-family="Times,serif" font-size="14.00">atelier_params</text>
<text text-anchor="start" x="-60.5" y="95.2" font-family="Times,serif" font-size="14.00">get_asso</text>
<text text-anchor="start" x="-60.5" y="110.2" font-family="Times,serif" font-size="14.00">set_atelier</text>
</g>
<!-- LegalController -->
<g id="node12" class="node"><title>LegalController</title>
<path fill="none" stroke="black" d="M233.5,339.5C233.5,339.5 312.5,339.5 312.5,339.5 318.5,339.5 324.5,333.5 324.5,327.5 324.5,327.5 324.5,258.5 324.5,258.5 324.5,252.5 318.5,246.5 312.5,246.5 312.5,246.5 233.5,246.5 233.5,246.5 227.5,246.5 221.5,252.5 221.5,258.5 221.5,258.5 221.5,327.5 221.5,327.5 221.5,333.5 227.5,339.5 233.5,339.5"/>
<text text-anchor="middle" x="273" y="261.7" font-family="Times,serif" font-size="14.00">LegalController</text>
<polyline fill="none" stroke="black" points="221.5,269.5 324.5,269.5 "/>
<text text-anchor="start" x="229.5" y="284.7" font-family="Times,serif" font-size="14.00">index</text>
<polyline fill="none" stroke="black" points="221.5,292.5 324.5,292.5 "/>
<polyline fill="none" stroke="black" points="221.5,316.5 324.5,316.5 "/>
<text text-anchor="start" x="229.5" y="331.7" font-family="Times,serif" font-size="14.00">_layout</text>
</g>
<!-- PlacesController -->
<g id="node13" class="node"><title>PlacesController</title>
<path fill="none" stroke="black" d="M-192.5,-0.5C-192.5,-0.5 -109.5,-0.5 -109.5,-0.5 -103.5,-0.5 -97.5,-6.5 -97.5,-12.5 -97.5,-12.5 -97.5,-201.5 -97.5,-201.5 -97.5,-207.5 -103.5,-213.5 -109.5,-213.5 -109.5,-213.5 -192.5,-213.5 -192.5,-213.5 -198.5,-213.5 -204.5,-207.5 -204.5,-201.5 -204.5,-201.5 -204.5,-12.5 -204.5,-12.5 -204.5,-6.5 -198.5,-0.5 -192.5,-0.5"/>
<text text-anchor="middle" x="-151" y="-198.3" font-family="Times,serif" font-size="14.00">PlacesController</text>
<polyline fill="none" stroke="black" points="-204.5,-190.5 -97.5,-190.5 "/>
<text text-anchor="start" x="-196.5" y="-175.3" font-family="Times,serif" font-size="14.00">create</text>
<text text-anchor="start" x="-196.5" y="-160.3" font-family="Times,serif" font-size="14.00">destroy</text>
<text text-anchor="start" x="-196.5" y="-145.3" font-family="Times,serif" font-size="14.00">edit</text>
<text text-anchor="start" x="-196.5" y="-130.3" font-family="Times,serif" font-size="14.00">index</text>
<text text-anchor="start" x="-196.5" y="-115.3" font-family="Times,serif" font-size="14.00">new</text>
<text text-anchor="start" x="-196.5" y="-100.3" font-family="Times,serif" font-size="14.00">show</text>
<text text-anchor="start" x="-196.5" y="-85.3" font-family="Times,serif" font-size="14.00">update</text>
<polyline fill="none" stroke="black" points="-204.5,-77.5 -97.5,-77.5 "/>
<polyline fill="none" stroke="black" points="-204.5,-53.5 -97.5,-53.5 "/>
<text text-anchor="start" x="-196.5" y="-38.3" font-family="Times,serif" font-size="14.00">_layout</text>
<text text-anchor="start" x="-196.5" y="-23.3" font-family="Times,serif" font-size="14.00">place_params</text>
<text text-anchor="start" x="-196.5" y="-8.3" font-family="Times,serif" font-size="14.00">set_place</text>
</g>
</g>
</svg>
