<?xml version="1.0" encoding="UTF-8" standalone="no"?>
<!DOCTYPE svg PUBLIC "-//W3C//DTD SVG 1.1//EN"
 "http://www.w3.org/Graphics/SVG/1.1/DTD/svg11.dtd">
<!-- Generated by graphviz version 2.38.0 (20140413.2041)
 -->
<!-- Title: models_diagram Pages: 1 -->
<svg width="760pt" height="302pt"
 viewBox="0.00 0.00 760.34 302.00" xmlns="http://www.w3.org/2000/svg" xmlns:xlink="http://www.w3.org/1999/xlink">
<g id="graph0" class="graph" transform="scale(1 1) rotate(0) translate(4 298)">
<title>models_diagram</title>
<polygon fill="none" stroke="none" points="-4,4 -4,-298 756.343,-298 756.343,4 -4,4"/>
<!-- _diagram_info -->
<g id="node1" class="node"><title>_diagram_info</title>
<text text-anchor="start" x="8" y="-279.6" font-family="Times,serif" font-size="13.00">Models diagram</text>
<text text-anchor="start" x="8" y="-265.6" font-family="Times,serif" font-size="13.00">Date: Apr 10 2020 &#45; 12:56</text>
<text text-anchor="start" x="8" y="-251.6" font-family="Times,serif" font-size="13.00">Migration version: 20200410102933</text>
<text text-anchor="start" x="8" y="-237.6" font-family="Times,serif" font-size="13.00">Generated by RailRoady 1.5.3</text>
<text text-anchor="start" x="8" y="-223.6" font-family="Times,serif" font-size="13.00">http://railroady.prestonlee.com</text>
</g>
<!-- Departement -->
<g id="node2" class="node"><title>Departement</title>
<ellipse fill="none" stroke="black" cx="268" cy="-162" rx="56.59" ry="18"/>
<text text-anchor="middle" x="268" y="-158.3" font-family="Times,serif" font-size="14.00">Departement</text>
</g>
<!-- Region -->
<g id="node3" class="node"><title>Region</title>
<ellipse fill="none" stroke="black" cx="268" cy="-255" rx="36.2938" ry="18"/>
<text text-anchor="middle" x="268" y="-251.3" font-family="Times,serif" font-size="14.00">Region</text>
</g>
<!-- Region&#45;&gt;Departement -->
<g id="edge1" class="edge"><title>Region&#45;&gt;Departement</title>
<path fill="none" stroke="#a909e2" d="M268,-228.729C268,-216.725 268,-202.362 268,-190.129"/>
<ellipse fill="none" stroke="#a909e2" cx="268" cy="-232.884" rx="4" ry="4"/>
<polygon fill="#a909e2" stroke="#a909e2" points="268,-190.04 272.5,-180.04 268,-185.04 268,-180.04 268,-180.04 268,-180.04 268,-185.04 263.5,-180.04 268,-190.04 268,-190.04"/>
</g>
<!-- Asso -->
<g id="node4" class="node"><title>Asso</title>
<ellipse fill="none" stroke="black" cx="374" cy="-255" rx="28.6953" ry="18"/>
<text text-anchor="middle" x="374" y="-251.3" font-family="Times,serif" font-size="14.00">Asso</text>
</g>
<!-- Atelier -->
<g id="node10" class="node"><title>Atelier</title>
<ellipse fill="none" stroke="black" cx="442" cy="-18" rx="35.194" ry="18"/>
<text text-anchor="middle" x="442" y="-14.3" font-family="Times,serif" font-size="14.00">Atelier</text>
</g>
<!-- Asso&#45;&gt;Atelier -->
<g id="edge3" class="edge"><title>Asso&#45;&gt;Atelier</title>
<path fill="none" stroke="#5cb021" d="M369.729,-228.819C366.788,-206.223 364.602,-172.351 372,-144 381.9,-106.061 406.15,-67.4479 423.324,-43.3768"/>
<ellipse fill="none" stroke="#5cb021" cx="370.313" cy="-232.931" rx="4.00001" ry="4.00001"/>
<polygon fill="#5cb021" stroke="#5cb021" points="423.399,-43.2742 432.927,-37.8462 426.345,-39.2344 429.291,-35.1946 429.291,-35.1946 429.291,-35.1946 426.345,-39.2344 425.656,-32.543 423.399,-43.2742 423.399,-43.2742"/>
</g>
<!-- Event -->
<g id="node13" class="node"><title>Event</title>
<ellipse fill="none" stroke="black" cx="412" cy="-162" rx="31.3957" ry="18"/>
<text text-anchor="middle" x="412" y="-158.3" font-family="Times,serif" font-size="14.00">Event</text>
</g>
<!-- Asso&#45;&gt;Event -->
<g id="edge2" class="edge"><title>Asso&#45;&gt;Event</title>
<path fill="none" stroke="#70b507" d="M384.053,-229.925C389.336,-217.274 395.815,-201.759 401.204,-188.854"/>
<ellipse fill="none" stroke="#70b507" cx="382.511" cy="-233.618" rx="4.00002" ry="4.00002"/>
<polygon fill="#70b507" stroke="#70b507" points="401.221,-188.813 409.227,-181.319 403.148,-184.199 405.074,-179.585 405.074,-179.585 405.074,-179.585 403.148,-184.199 400.922,-177.851 401.221,-188.813 401.221,-188.813"/>
</g>
<!-- Admin -->
<g id="node5" class="node"><title>Admin</title>
<ellipse fill="none" stroke="black" cx="544" cy="-255" rx="35.9954" ry="18"/>
<text text-anchor="middle" x="544" y="-251.3" font-family="Times,serif" font-size="14.00">Admin</text>
</g>
<!-- Tool -->
<g id="node6" class="node"><title>Tool</title>
<ellipse fill="none" stroke="black" cx="564" cy="-162" rx="27.0966" ry="18"/>
<text text-anchor="middle" x="564" y="-158.3" font-family="Times,serif" font-size="14.00">Tool</text>
</g>
<!-- Metier -->
<g id="node8" class="node"><title>Metier</title>
<ellipse fill="none" stroke="black" cx="533" cy="-90" rx="34.394" ry="18"/>
<text text-anchor="middle" x="533" y="-86.3" font-family="Times,serif" font-size="14.00">Metier</text>
</g>
<!-- Tool&#45;&gt;Metier -->
<g id="edge4" class="edge"><title>Tool&#45;&gt;Metier</title>
<path fill="none" stroke="#d52cb6" d="M552.511,-135.056C549.943,-129.258 547.217,-123.104 544.643,-117.291"/>
<polygon fill="#d52cb6" stroke="#d52cb6" points="552.604,-135.267 552.539,-146.233 554.629,-139.839 556.653,-144.411 556.653,-144.411 556.653,-144.411 554.629,-139.839 560.768,-142.589 552.604,-135.267 552.604,-135.267"/>
<polygon fill="#d52cb6" stroke="#d52cb6" points="544.558,-117.1 544.624,-106.134 542.534,-112.528 540.509,-107.956 540.509,-107.956 540.509,-107.956 542.534,-112.528 536.395,-109.778 544.558,-117.1 544.558,-117.1"/>
</g>
<!-- Item -->
<g id="node11" class="node"><title>Item</title>
<ellipse fill="none" stroke="black" cx="595" cy="-18" rx="27.0966" ry="18"/>
<text text-anchor="middle" x="595" y="-14.3" font-family="Times,serif" font-size="14.00">Item</text>
</g>
<!-- Tool&#45;&gt;Item -->
<g id="edge5" class="edge"><title>Tool&#45;&gt;Item</title>
<path fill="none" stroke="#03e98f" d="M570.206,-133.89C572.088,-125.587 574.148,-116.422 576,-108 580.553,-87.2987 585.552,-63.8526 589.279,-46.2237"/>
<polygon fill="#03e98f" stroke="#03e98f" points="570.164,-134.075 563.557,-142.828 569.054,-138.951 567.945,-143.826 567.945,-143.826 567.945,-143.826 569.054,-138.951 572.333,-144.825 570.164,-134.075 570.164,-134.075"/>
<polygon fill="#03e98f" stroke="#03e98f" points="589.356,-45.86 595.823,-37.0043 590.388,-40.9677 591.42,-36.0754 591.42,-36.0754 591.42,-36.0754 590.388,-40.9677 587.017,-35.1465 589.356,-45.86 589.356,-45.86"/>
</g>
<!-- ApplicationRecord -->
<g id="node7" class="node"><title>ApplicationRecord</title>
<ellipse fill="none" stroke="black" cx="675" cy="-255" rx="77.1866" ry="18"/>
<text text-anchor="middle" x="675" y="-251.3" font-family="Times,serif" font-size="14.00">ApplicationRecord</text>
</g>
<!-- Metier&#45;&gt;Atelier -->
<g id="edge8" class="edge"><title>Metier&#45;&gt;Atelier</title>
<path fill="none" stroke="#f2fe39" d="M507.61,-69.4693C495.556,-60.1973 481.146,-49.112 468.904,-39.6953"/>
<ellipse fill="none" stroke="#f2fe39" cx="510.974" cy="-72.0571" rx="4.00002" ry="4.00002"/>
<polygon fill="#f2fe39" stroke="#f2fe39" points="468.757,-39.5826 463.575,-29.9186 464.794,-36.534 460.831,-33.4855 460.831,-33.4855 460.831,-33.4855 464.794,-36.534 458.087,-37.0523 468.757,-39.5826 468.757,-39.5826"/>
</g>
<!-- Metier&#45;&gt;Item -->
<g id="edge6" class="edge"><title>Metier&#45;&gt;Item</title>
<path fill="none" stroke="#24f7cb" d="M546.937,-66.0611C554.002,-57.467 562.653,-47.7675 570.717,-39.4167"/>
<ellipse fill="none" stroke="#24f7cb" cx="544.353" cy="-69.2884" rx="4.00002" ry="4.00002"/>
<polygon fill="#24f7cb" stroke="#24f7cb" points="570.844,-39.2886 581.086,-35.3702 574.37,-35.743 577.895,-32.1973 577.895,-32.1973 577.895,-32.1973 574.37,-35.743 574.704,-29.0244 570.844,-39.2886 570.844,-39.2886"/>
</g>
<!-- User -->
<g id="node12" class="node"><title>User</title>
<ellipse fill="none" stroke="black" cx="522" cy="-18" rx="27.0966" ry="18"/>
<text text-anchor="middle" x="522" y="-14.3" font-family="Times,serif" font-size="14.00">User</text>
</g>
<!-- Metier&#45;&gt;User -->
<g id="edge7" class="edge"><title>Metier&#45;&gt;User</title>
<path fill="none" stroke="#7b0e7e" d="M529.015,-63.6398C528.116,-57.92 527.159,-51.8276 526.249,-46.0416"/>
<ellipse fill="none" stroke="#7b0e7e" cx="529.66" cy="-67.7451" rx="4.00001" ry="4.00001"/>
<polygon fill="#7b0e7e" stroke="#7b0e7e" points="526.24,-45.9831 529.133,-35.4057 525.464,-41.0437 524.688,-36.1043 524.688,-36.1043 524.688,-36.1043 525.464,-41.0437 520.242,-36.8029 526.24,-45.9831 526.24,-45.9831"/>
</g>
<!-- Place -->
<g id="node9" class="node"><title>Place</title>
<ellipse fill="none" stroke="black" cx="460" cy="-255" rx="29.795" ry="18"/>
<text text-anchor="middle" x="460" y="-251.3" font-family="Times,serif" font-size="14.00">Place</text>
</g>
<!-- Place&#45;&gt;Atelier -->
<g id="edge10" class="edge"><title>Place&#45;&gt;Atelier</title>
<path fill="none" stroke="#a244be" d="M458.204,-228.587C456.616,-206.289 454.214,-172.99 452,-144 449.433,-110.38 446.312,-71.6891 444.247,-46.3674"/>
<ellipse fill="none" stroke="#a244be" cx="458.508" cy="-232.859" rx="4" ry="4"/>
<polygon fill="#a244be" stroke="#a244be" points="444.246,-46.3543 447.916,-36.0209 443.838,-41.3709 443.431,-36.3876 443.431,-36.3876 443.431,-36.3876 443.838,-41.3709 438.946,-36.7542 444.246,-46.3543 444.246,-46.3543"/>
</g>
<!-- Place&#45;&gt;Event -->
<g id="edge9" class="edge"><title>Place&#45;&gt;Event</title>
<path fill="none" stroke="#9ed1ea" d="M447.504,-230.31C440.719,-217.446 432.326,-201.536 425.405,-188.414"/>
<ellipse fill="none" stroke="#9ed1ea" cx="449.552" cy="-234.193" rx="4.00002" ry="4.00002"/>
<polygon fill="#9ed1ea" stroke="#9ed1ea" points="425.335,-188.28 424.649,-177.335 423.002,-183.857 420.669,-179.435 420.669,-179.435 420.669,-179.435 423.002,-183.857 416.689,-181.534 425.335,-188.28 425.335,-188.28"/>
</g>
<!-- Item&#45;&gt;Metier -->
<g id="edge11" class="edge"><title>Item&#45;&gt;Metier</title>
<path fill="none" stroke="#4c27ec" d="M580.155,-43.039C573.622,-50.9236 565.856,-59.6337 558.486,-67.332"/>
<polygon fill="#4c27ec" stroke="#4c27ec" points="580.189,-42.9963 589.959,-38.0153 583.32,-39.0972 586.45,-35.1982 586.45,-35.1982 586.45,-35.1982 583.32,-39.0972 582.941,-32.3811 580.189,-42.9963 580.189,-42.9963"/>
<polygon fill="#4c27ec" stroke="#4c27ec" points="558.452,-67.3669 548.231,-71.3403 554.945,-70.9314 551.439,-74.496 551.439,-74.496 551.439,-74.496 554.945,-70.9314 554.647,-77.6516 558.452,-67.3669 558.452,-67.3669"/>
</g>
<!-- Event&#45;&gt;Metier -->
<g id="edge12" class="edge"><title>Event&#45;&gt;Metier</title>
<path fill="none" stroke="#0f8e43" d="M442.287,-143.478C460.443,-132.975 483.482,-119.647 501.798,-109.051"/>
<polygon fill="#0f8e43" stroke="#0f8e43" points="442.01,-143.639 431.1,-144.751 437.682,-146.143 433.354,-148.647 433.354,-148.647 433.354,-148.647 437.682,-146.143 435.607,-152.542 442.01,-143.639 442.01,-143.639"/>
<polygon fill="#0f8e43" stroke="#0f8e43" points="501.975,-108.949 512.884,-107.836 506.302,-106.445 510.63,-103.941 510.63,-103.941 510.63,-103.941 506.302,-106.445 508.377,-100.046 501.975,-108.949 501.975,-108.949"/>
</g>
</g>
</svg>
