<?xml version="1.0" encoding="UTF-8" standalone="no"?>
<!DOCTYPE svg PUBLIC "-//W3C//DTD SVG 1.1//EN"
 "http://www.w3.org/Graphics/SVG/1.1/DTD/svg11.dtd">
<!-- Generated by graphviz version 2.38.0 (20140413.2041)
 -->
<!-- Title: models_diagram Pages: 1 -->
<svg width="1521pt" height="949pt"
 viewBox="0.00 0.00 1521.34 949.00" xmlns="http://www.w3.org/2000/svg" xmlns:xlink="http://www.w3.org/1999/xlink">
<g id="graph0" class="graph" transform="scale(1 1) rotate(0) translate(4 945)">
<title>models_diagram</title>
<polygon fill="none" stroke="none" points="-4,4 -4,-945 1517.34,-945 1517.34,4 -4,4"/>
<!-- _diagram_info -->
<g id="node1" class="node"><title>_diagram_info</title>
<text text-anchor="start" x="8" y="-844.6" font-family="Times,serif" font-size="13.00">Models diagram</text>
<text text-anchor="start" x="8" y="-830.6" font-family="Times,serif" font-size="13.00">Date: Apr 10 2020 &#45; 12:56</text>
<text text-anchor="start" x="8" y="-816.6" font-family="Times,serif" font-size="13.00">Migration version: 20200410102933</text>
<text text-anchor="start" x="8" y="-802.6" font-family="Times,serif" font-size="13.00">Generated by RailRoady 1.5.3</text>
<text text-anchor="start" x="8" y="-788.6" font-family="Times,serif" font-size="13.00">http://railroady.prestonlee.com</text>
</g>
<!-- Departement -->
<g id="node2" class="node"><title>Departement</title>
<path fill="none" stroke="black" d="M244,-481.5C244,-481.5 464,-481.5 464,-481.5 470,-481.5 476,-487.5 476,-493.5 476,-493.5 476,-590.5 476,-590.5 476,-596.5 470,-602.5 464,-602.5 464,-602.5 244,-602.5 244,-602.5 238,-602.5 232,-596.5 232,-590.5 232,-590.5 232,-493.5 232,-493.5 232,-487.5 238,-481.5 244,-481.5"/>
<text text-anchor="middle" x="354" y="-587.3" font-family="Times,serif" font-size="14.00">Departement</text>
<polyline fill="none" stroke="black" points="232,-579.5 476,-579.5 "/>
<text text-anchor="start" x="240" y="-564.3" font-family="Times,serif" font-size="14.00">id :bigint</text>
<text text-anchor="start" x="240" y="-549.3" font-family="Times,serif" font-size="14.00">name :character varying</text>
<text text-anchor="start" x="240" y="-534.3" font-family="Times,serif" font-size="14.00">numero :character varying</text>
<text text-anchor="start" x="240" y="-519.3" font-family="Times,serif" font-size="14.00">created_at :timestamp without time zone</text>
<text text-anchor="start" x="240" y="-504.3" font-family="Times,serif" font-size="14.00">updated_at :timestamp without time zone</text>
<text text-anchor="start" x="240" y="-489.3" font-family="Times,serif" font-size="14.00">region_id :bigint</text>
</g>
<!-- Region -->
<g id="node3" class="node"><title>Region</title>
<path fill="none" stroke="black" d="M244,-759.5C244,-759.5 464,-759.5 464,-759.5 470,-759.5 476,-765.5 476,-771.5 476,-771.5 476,-868.5 476,-868.5 476,-874.5 470,-880.5 464,-880.5 464,-880.5 244,-880.5 244,-880.5 238,-880.5 232,-874.5 232,-868.5 232,-868.5 232,-771.5 232,-771.5 232,-765.5 238,-759.5 244,-759.5"/>
<text text-anchor="middle" x="354" y="-865.3" font-family="Times,serif" font-size="14.00">Region</text>
<polyline fill="none" stroke="black" points="232,-857.5 476,-857.5 "/>
<text text-anchor="start" x="240" y="-842.3" font-family="Times,serif" font-size="14.00">id :bigint</text>
<text text-anchor="start" x="240" y="-827.3" font-family="Times,serif" font-size="14.00">num :integer</text>
<text text-anchor="start" x="240" y="-812.3" font-family="Times,serif" font-size="14.00">uppername :character varying</text>
<text text-anchor="start" x="240" y="-797.3" font-family="Times,serif" font-size="14.00">displayname :character varying</text>
<text text-anchor="start" x="240" y="-782.3" font-family="Times,serif" font-size="14.00">created_at :timestamp without time zone</text>
<text text-anchor="start" x="240" y="-767.3" font-family="Times,serif" font-size="14.00">updated_at :timestamp without time zone</text>
</g>
<!-- Region&#45;&gt;Departement -->
<g id="edge1" class="edge"><title>Region&#45;&gt;Departement</title>
<path fill="none" stroke="#68008b" d="M354,-751.426C354,-709.457 354,-655.617 354,-613.171"/>
<ellipse fill="none" stroke="#68008b" cx="354" cy="-755.452" rx="4" ry="4"/>
<polygon fill="#68008b" stroke="#68008b" points="354,-612.917 358.5,-602.917 354,-607.917 354,-602.917 354,-602.917 354,-602.917 354,-607.917 349.5,-602.917 354,-612.917 354,-612.917"/>
</g>
<!-- Asso -->
<g id="node4" class="node"><title>Asso</title>
<path fill="none" stroke="black" d="M506,-699.5C506,-699.5 726,-699.5 726,-699.5 732,-699.5 738,-705.5 738,-711.5 738,-711.5 738,-928.5 738,-928.5 738,-934.5 732,-940.5 726,-940.5 726,-940.5 506,-940.5 506,-940.5 500,-940.5 494,-934.5 494,-928.5 494,-928.5 494,-711.5 494,-711.5 494,-705.5 500,-699.5 506,-699.5"/>
<text text-anchor="middle" x="616" y="-925.3" font-family="Times,serif" font-size="14.00">Asso</text>
<polyline fill="none" stroke="black" points="494,-917.5 738,-917.5 "/>
<text text-anchor="start" x="502" y="-902.3" font-family="Times,serif" font-size="14.00">id :bigint</text>
<text text-anchor="start" x="502" y="-887.3" font-family="Times,serif" font-size="14.00">name :character varying</text>
<text text-anchor="start" x="502" y="-872.3" font-family="Times,serif" font-size="14.00">address :character varying</text>
<text text-anchor="start" x="502" y="-857.3" font-family="Times,serif" font-size="14.00">zipcode :character varying</text>
<text text-anchor="start" x="502" y="-842.3" font-family="Times,serif" font-size="14.00">city :character varying</text>
<text text-anchor="start" x="502" y="-827.3" font-family="Times,serif" font-size="14.00">lat :double precision</text>
<text text-anchor="start" x="502" y="-812.3" font-family="Times,serif" font-size="14.00">long :double precision</text>
<text text-anchor="start" x="502" y="-797.3" font-family="Times,serif" font-size="14.00">phone :character varying</text>
<text text-anchor="start" x="502" y="-782.3" font-family="Times,serif" font-size="14.00">email :character varying</text>
<text text-anchor="start" x="502" y="-767.3" font-family="Times,serif" font-size="14.00">members :integer</text>
<text text-anchor="start" x="502" y="-752.3" font-family="Times,serif" font-size="14.00">created_at :timestamp without time zone</text>
<text text-anchor="start" x="502" y="-737.3" font-family="Times,serif" font-size="14.00">updated_at :timestamp without time zone</text>
<text text-anchor="start" x="502" y="-722.3" font-family="Times,serif" font-size="14.00">user_id :bigint</text>
<text text-anchor="start" x="502" y="-707.3" font-family="Times,serif" font-size="14.00">departement_id :bigint</text>
</g>
<!-- Atelier -->
<g id="node10" class="node"><title>Atelier</title>
<path fill="none" stroke="black" d="M572,-0.5C572,-0.5 792,-0.5 792,-0.5 798,-0.5 804,-6.5 804,-12.5 804,-12.5 804,-199.5 804,-199.5 804,-205.5 798,-211.5 792,-211.5 792,-211.5 572,-211.5 572,-211.5 566,-211.5 560,-205.5 560,-199.5 560,-199.5 560,-12.5 560,-12.5 560,-6.5 566,-0.5 572,-0.5"/>
<text text-anchor="middle" x="682" y="-196.3" font-family="Times,serif" font-size="14.00">Atelier</text>
<polyline fill="none" stroke="black" points="560,-188.5 804,-188.5 "/>
<text text-anchor="start" x="568" y="-173.3" font-family="Times,serif" font-size="14.00">id :bigint</text>
<text text-anchor="start" x="568" y="-158.3" font-family="Times,serif" font-size="14.00">name :character varying</text>
<text text-anchor="start" x="568" y="-143.3" font-family="Times,serif" font-size="14.00">description :text</text>
<text text-anchor="start" x="568" y="-128.3" font-family="Times,serif" font-size="14.00">slots :integer</text>
<text text-anchor="start" x="568" y="-113.3" font-family="Times,serif" font-size="14.00">min_age :integer</text>
<text text-anchor="start" x="568" y="-98.3" font-family="Times,serif" font-size="14.00">max_age :integer</text>
<text text-anchor="start" x="568" y="-83.3" font-family="Times,serif" font-size="14.00">media :text</text>
<text text-anchor="start" x="568" y="-68.3" font-family="Times,serif" font-size="14.00">created_at :timestamp without time zone</text>
<text text-anchor="start" x="568" y="-53.3" font-family="Times,serif" font-size="14.00">updated_at :timestamp without time zone</text>
<text text-anchor="start" x="568" y="-38.3" font-family="Times,serif" font-size="14.00">asso_id :bigint</text>
<text text-anchor="start" x="568" y="-23.3" font-family="Times,serif" font-size="14.00">metier_id :bigint</text>
<text text-anchor="start" x="568" y="-8.3" font-family="Times,serif" font-size="14.00">place_id :bigint</text>
</g>
<!-- Asso&#45;&gt;Atelier -->
<g id="edge3" class="edge"><title>Asso&#45;&gt;Atelier</title>
<path fill="none" stroke="#bef65f" d="M613.806,-690.951C613.729,-612.775 615.881,-510.897 625,-421 631.739,-354.563 644.767,-281.083 656.669,-221.917"/>
<ellipse fill="none" stroke="#bef65f" cx="613.815" cy="-695.401" rx="4" ry="4"/>
<polygon fill="#bef65f" stroke="#bef65f" points="656.734,-221.597 663.132,-212.692 657.728,-216.697 658.722,-211.797 658.722,-211.797 658.722,-211.797 657.728,-216.697 654.311,-210.902 656.734,-221.597 656.734,-221.597"/>
</g>
<!-- Event -->
<g id="node13" class="node"><title>Event</title>
<path fill="none" stroke="black" d="M646,-421.5C646,-421.5 866,-421.5 866,-421.5 872,-421.5 878,-427.5 878,-433.5 878,-433.5 878,-650.5 878,-650.5 878,-656.5 872,-662.5 866,-662.5 866,-662.5 646,-662.5 646,-662.5 640,-662.5 634,-656.5 634,-650.5 634,-650.5 634,-433.5 634,-433.5 634,-427.5 640,-421.5 646,-421.5"/>
<text text-anchor="middle" x="756" y="-647.3" font-family="Times,serif" font-size="14.00">Event</text>
<polyline fill="none" stroke="black" points="634,-639.5 878,-639.5 "/>
<text text-anchor="start" x="642" y="-624.3" font-family="Times,serif" font-size="14.00">id :bigint</text>
<text text-anchor="start" x="642" y="-609.3" font-family="Times,serif" font-size="14.00">name :character varying</text>
<text text-anchor="start" x="642" y="-594.3" font-family="Times,serif" font-size="14.00">description :text</text>
<text text-anchor="start" x="642" y="-579.3" font-family="Times,serif" font-size="14.00">date :date</text>
<text text-anchor="start" x="642" y="-564.3" font-family="Times,serif" font-size="14.00">slots :integer</text>
<text text-anchor="start" x="642" y="-549.3" font-family="Times,serif" font-size="14.00">min_age :smallint</text>
<text text-anchor="start" x="642" y="-534.3" font-family="Times,serif" font-size="14.00">max_age :smallint</text>
<text text-anchor="start" x="642" y="-519.3" font-family="Times,serif" font-size="14.00">media :character varying</text>
<text text-anchor="start" x="642" y="-504.3" font-family="Times,serif" font-size="14.00">start_hour :time without time zone</text>
<text text-anchor="start" x="642" y="-489.3" font-family="Times,serif" font-size="14.00">end_hour :time without time zone</text>
<text text-anchor="start" x="642" y="-474.3" font-family="Times,serif" font-size="14.00">created_at :timestamp without time zone</text>
<text text-anchor="start" x="642" y="-459.3" font-family="Times,serif" font-size="14.00">updated_at :timestamp without time zone</text>
<text text-anchor="start" x="642" y="-444.3" font-family="Times,serif" font-size="14.00">place_id :bigint</text>
<text text-anchor="start" x="642" y="-429.3" font-family="Times,serif" font-size="14.00">asso_id :bigint</text>
</g>
<!-- Asso&#45;&gt;Event -->
<g id="edge2" class="edge"><title>Asso&#45;&gt;Event</title>
<path fill="none" stroke="#e9ad9f" d="M680.538,-691.768C683.91,-685.12 687.3,-678.438 690.675,-671.784"/>
<ellipse fill="none" stroke="#e9ad9f" cx="678.605" cy="-695.579" rx="4.00002" ry="4.00002"/>
<polygon fill="#e9ad9f" stroke="#e9ad9f" points="690.741,-671.653 699.278,-664.771 693.003,-667.194 695.265,-662.735 695.265,-662.735 695.265,-662.735 693.003,-667.194 691.252,-660.699 690.741,-671.653 690.741,-671.653"/>
</g>
<!-- Admin -->
<g id="node5" class="node"><title>Admin</title>
<path fill="none" stroke="black" d="M1039.5,-744.5C1039.5,-744.5 1328.5,-744.5 1328.5,-744.5 1334.5,-744.5 1340.5,-750.5 1340.5,-756.5 1340.5,-756.5 1340.5,-883.5 1340.5,-883.5 1340.5,-889.5 1334.5,-895.5 1328.5,-895.5 1328.5,-895.5 1039.5,-895.5 1039.5,-895.5 1033.5,-895.5 1027.5,-889.5 1027.5,-883.5 1027.5,-883.5 1027.5,-756.5 1027.5,-756.5 1027.5,-750.5 1033.5,-744.5 1039.5,-744.5"/>
<text text-anchor="middle" x="1184" y="-880.3" font-family="Times,serif" font-size="14.00">Admin</text>
<polyline fill="none" stroke="black" points="1027.5,-872.5 1340.5,-872.5 "/>
<text text-anchor="start" x="1035.5" y="-857.3" font-family="Times,serif" font-size="14.00">id :bigint</text>
<text text-anchor="start" x="1035.5" y="-842.3" font-family="Times,serif" font-size="14.00">email :character varying</text>
<text text-anchor="start" x="1035.5" y="-827.3" font-family="Times,serif" font-size="14.00">encrypted_password :character varying</text>
<text text-anchor="start" x="1035.5" y="-812.3" font-family="Times,serif" font-size="14.00">reset_password_token :character varying</text>
<text text-anchor="start" x="1035.5" y="-797.3" font-family="Times,serif" font-size="14.00">reset_password_sent_at :timestamp without time zone</text>
<text text-anchor="start" x="1035.5" y="-782.3" font-family="Times,serif" font-size="14.00">remember_created_at :timestamp without time zone</text>
<text text-anchor="start" x="1035.5" y="-767.3" font-family="Times,serif" font-size="14.00">created_at :timestamp without time zone</text>
<text text-anchor="start" x="1035.5" y="-752.3" font-family="Times,serif" font-size="14.00">updated_at :timestamp without time zone</text>
</g>
<!-- Tool -->
<g id="node6" class="node"><title>Tool</title>
<path fill="none" stroke="black" d="M1021,-481.5C1021,-481.5 1241,-481.5 1241,-481.5 1247,-481.5 1253,-487.5 1253,-493.5 1253,-493.5 1253,-590.5 1253,-590.5 1253,-596.5 1247,-602.5 1241,-602.5 1241,-602.5 1021,-602.5 1021,-602.5 1015,-602.5 1009,-596.5 1009,-590.5 1009,-590.5 1009,-493.5 1009,-493.5 1009,-487.5 1015,-481.5 1021,-481.5"/>
<text text-anchor="middle" x="1131" y="-587.3" font-family="Times,serif" font-size="14.00">Tool</text>
<polyline fill="none" stroke="black" points="1009,-579.5 1253,-579.5 "/>
<text text-anchor="start" x="1017" y="-564.3" font-family="Times,serif" font-size="14.00">id :bigint</text>
<text text-anchor="start" x="1017" y="-549.3" font-family="Times,serif" font-size="14.00">name :character varying</text>
<text text-anchor="start" x="1017" y="-534.3" font-family="Times,serif" font-size="14.00">media :character varying</text>
<text text-anchor="start" x="1017" y="-519.3" font-family="Times,serif" font-size="14.00">description :text</text>
<text text-anchor="start" x="1017" y="-504.3" font-family="Times,serif" font-size="14.00">created_at :timestamp without time zone</text>
<text text-anchor="start" x="1017" y="-489.3" font-family="Times,serif" font-size="14.00">updated_at :timestamp without time zone</text>
</g>
<!-- Metier -->
<g id="node8" class="node"><title>Metier</title>
<path fill="none" stroke="black" d="M946,-248.5C946,-248.5 1166,-248.5 1166,-248.5 1172,-248.5 1178,-254.5 1178,-260.5 1178,-260.5 1178,-372.5 1178,-372.5 1178,-378.5 1172,-384.5 1166,-384.5 1166,-384.5 946,-384.5 946,-384.5 940,-384.5 934,-378.5 934,-372.5 934,-372.5 934,-260.5 934,-260.5 934,-254.5 940,-248.5 946,-248.5"/>
<text text-anchor="middle" x="1056" y="-369.3" font-family="Times,serif" font-size="14.00">Metier</text>
<polyline fill="none" stroke="black" points="934,-361.5 1178,-361.5 "/>
<text text-anchor="start" x="942" y="-346.3" font-family="Times,serif" font-size="14.00">id :bigint</text>
<text text-anchor="start" x="942" y="-331.3" font-family="Times,serif" font-size="14.00">name :character varying(150)</text>
<text text-anchor="start" x="942" y="-316.3" font-family="Times,serif" font-size="14.00">media :character varying(400)</text>
<text text-anchor="start" x="942" y="-301.3" font-family="Times,serif" font-size="14.00">training :text</text>
<text text-anchor="start" x="942" y="-286.3" font-family="Times,serif" font-size="14.00">explanation :text</text>
<text text-anchor="start" x="942" y="-271.3" font-family="Times,serif" font-size="14.00">created_at :timestamp without time zone</text>
<text text-anchor="start" x="942" y="-256.3" font-family="Times,serif" font-size="14.00">updated_at :timestamp without time zone</text>
</g>
<!-- Tool&#45;&gt;Metier -->
<g id="edge4" class="edge"><title>Tool&#45;&gt;Metier</title>
<path fill="none" stroke="#b656c8" d="M1107.78,-471.791C1099.54,-447.24 1090.22,-419.469 1081.78,-394.321"/>
<polygon fill="#b656c8" stroke="#b656c8" points="1107.82,-471.919 1106.73,-482.831 1109.41,-476.659 1111,-481.4 1111,-481.4 1111,-481.4 1109.41,-476.659 1115.27,-479.968 1107.82,-471.919 1107.82,-471.919"/>
<polygon fill="#b656c8" stroke="#b656c8" points="1081.77,-394.304 1082.86,-383.392 1080.18,-389.564 1078.59,-384.824 1078.59,-384.824 1078.59,-384.824 1080.18,-389.564 1074.33,-386.255 1081.77,-394.304 1081.77,-394.304"/>
</g>
<!-- Item -->
<g id="node11" class="node"><title>Item</title>
<path fill="none" stroke="black" d="M1096,-38C1096,-38 1316,-38 1316,-38 1322,-38 1328,-44 1328,-50 1328,-50 1328,-162 1328,-162 1328,-168 1322,-174 1316,-174 1316,-174 1096,-174 1096,-174 1090,-174 1084,-168 1084,-162 1084,-162 1084,-50 1084,-50 1084,-44 1090,-38 1096,-38"/>
<text text-anchor="middle" x="1206" y="-158.8" font-family="Times,serif" font-size="14.00">Item</text>
<polyline fill="none" stroke="black" points="1084,-151 1328,-151 "/>
<text text-anchor="start" x="1092" y="-135.8" font-family="Times,serif" font-size="14.00">id :bigint</text>
<text text-anchor="start" x="1092" y="-120.8" font-family="Times,serif" font-size="14.00">name :character varying</text>
<text text-anchor="start" x="1092" y="-105.8" font-family="Times,serif" font-size="14.00">media :character varying</text>
<text text-anchor="start" x="1092" y="-90.8" font-family="Times,serif" font-size="14.00">description :text</text>
<text text-anchor="start" x="1092" y="-75.8" font-family="Times,serif" font-size="14.00">build_time :time without time zone</text>
<text text-anchor="start" x="1092" y="-60.8" font-family="Times,serif" font-size="14.00">created_at :timestamp without time zone</text>
<text text-anchor="start" x="1092" y="-45.8" font-family="Times,serif" font-size="14.00">updated_at :timestamp without time zone</text>
</g>
<!-- Tool&#45;&gt;Item -->
<g id="edge5" class="edge"><title>Tool&#45;&gt;Item</title>
<path fill="none" stroke="#93767f" d="M1160.5,-471.767C1170.61,-445.116 1180.91,-414.097 1187,-385 1200.98,-318.249 1205.32,-240.711 1206.41,-184.509"/>
<polygon fill="#93767f" stroke="#93767f" points="1160.39,-472.047 1152.59,-479.755 1158.59,-476.712 1156.79,-481.376 1156.79,-481.376 1156.79,-481.376 1158.59,-476.712 1160.99,-482.997 1160.39,-472.047 1160.39,-472.047"/>
<polygon fill="#93767f" stroke="#93767f" points="1206.41,-184.269 1211.07,-174.343 1206.49,-179.27 1206.57,-174.27 1206.57,-174.27 1206.57,-174.27 1206.49,-179.27 1202.07,-174.197 1206.41,-184.269 1206.41,-184.269"/>
</g>
<!-- ApplicationRecord -->
<g id="node7" class="node"><title>ApplicationRecord</title>
<ellipse fill="none" stroke="black" cx="1436" cy="-820" rx="77.1866" ry="18"/>
<text text-anchor="middle" x="1436" y="-816.3" font-family="Times,serif" font-size="14.00">ApplicationRecord</text>
</g>
<!-- Metier&#45;&gt;Atelier -->
<g id="edge8" class="edge"><title>Metier&#45;&gt;Atelier</title>
<path fill="none" stroke="#e73d40" d="M925.945,-250.495C923.954,-249.648 921.971,-248.816 920,-248 873.643,-228.802 857.03,-236.06 813,-212 812.908,-211.95 812.816,-211.899 812.724,-211.849"/>
<ellipse fill="none" stroke="#e73d40" cx="929.989" cy="-252.24" rx="4.00001" ry="4.00001"/>
<polygon fill="#e73d40" stroke="#e73d40" points="812.872,-211.933 806.408,-203.074 808.527,-209.459 804.181,-206.985 804.181,-206.985 804.181,-206.985 808.527,-209.459 801.955,-210.895 812.872,-211.933 812.872,-211.933"/>
</g>
<!-- Metier&#45;&gt;Item -->
<g id="edge6" class="edge"><title>Metier&#45;&gt;Item</title>
<path fill="none" stroke="#28f48c" d="M1102.64,-241.646C1116.1,-222.464 1130.98,-201.777 1145.16,-182.511"/>
<ellipse fill="none" stroke="#28f48c" cx="1100.23" cy="-245.104" rx="4.00002" ry="4.00002"/>
<polygon fill="#28f48c" stroke="#28f48c" points="1145.25,-182.393 1154.81,-177.024 1148.22,-178.372 1151.19,-174.35 1151.19,-174.35 1151.19,-174.35 1148.22,-178.372 1147.57,-171.676 1145.25,-182.393 1145.25,-182.393"/>
</g>
<!-- User -->
<g id="node12" class="node"><title>User</title>
<path fill="none" stroke="black" d="M834,-30.5C834,-30.5 1054,-30.5 1054,-30.5 1060,-30.5 1066,-36.5 1066,-42.5 1066,-42.5 1066,-169.5 1066,-169.5 1066,-175.5 1060,-181.5 1054,-181.5 1054,-181.5 834,-181.5 834,-181.5 828,-181.5 822,-175.5 822,-169.5 822,-169.5 822,-42.5 822,-42.5 822,-36.5 828,-30.5 834,-30.5"/>
<text text-anchor="middle" x="944" y="-166.3" font-family="Times,serif" font-size="14.00">User</text>
<polyline fill="none" stroke="black" points="822,-158.5 1066,-158.5 "/>
<text text-anchor="start" x="830" y="-143.3" font-family="Times,serif" font-size="14.00">id :bigint</text>
<text text-anchor="start" x="830" y="-128.3" font-family="Times,serif" font-size="14.00">first_name :character varying</text>
<text text-anchor="start" x="830" y="-113.3" font-family="Times,serif" font-size="14.00">last_name :character varying</text>
<text text-anchor="start" x="830" y="-98.3" font-family="Times,serif" font-size="14.00">email :character varying</text>
<text text-anchor="start" x="830" y="-83.3" font-family="Times,serif" font-size="14.00">phone :character varying</text>
<text text-anchor="start" x="830" y="-68.3" font-family="Times,serif" font-size="14.00">created_at :timestamp without time zone</text>
<text text-anchor="start" x="830" y="-53.3" font-family="Times,serif" font-size="14.00">updated_at :timestamp without time zone</text>
<text text-anchor="start" x="830" y="-38.3" font-family="Times,serif" font-size="14.00">metier_id :bigint</text>
</g>
<!-- Metier&#45;&gt;User -->
<g id="edge7" class="edge"><title>Metier&#45;&gt;User</title>
<path fill="none" stroke="#1cda56" d="M1016.15,-241.31C1007.36,-224.944 997.984,-207.497 989.005,-190.781"/>
<ellipse fill="none" stroke="#1cda56" cx="1018.05" cy="-244.858" rx="4.00002" ry="4.00002"/>
<polygon fill="#1cda56" stroke="#1cda56" points="988.795,-190.39 988.027,-179.451 986.429,-185.986 984.063,-181.581 984.063,-181.581 984.063,-181.581 986.429,-185.986 980.098,-183.71 988.795,-190.39 988.795,-190.39"/>
</g>
<!-- Place -->
<g id="node9" class="node"><title>Place</title>
<path fill="none" stroke="black" d="M777,-714.5C777,-714.5 997,-714.5 997,-714.5 1003,-714.5 1009,-720.5 1009,-726.5 1009,-726.5 1009,-913.5 1009,-913.5 1009,-919.5 1003,-925.5 997,-925.5 997,-925.5 777,-925.5 777,-925.5 771,-925.5 765,-919.5 765,-913.5 765,-913.5 765,-726.5 765,-726.5 765,-720.5 771,-714.5 777,-714.5"/>
<text text-anchor="middle" x="887" y="-910.3" font-family="Times,serif" font-size="14.00">Place</text>
<polyline fill="none" stroke="black" points="765,-902.5 1009,-902.5 "/>
<text text-anchor="start" x="773" y="-887.3" font-family="Times,serif" font-size="14.00">id :bigint</text>
<text text-anchor="start" x="773" y="-872.3" font-family="Times,serif" font-size="14.00">name :character varying</text>
<text text-anchor="start" x="773" y="-857.3" font-family="Times,serif" font-size="14.00">address :character varying</text>
<text text-anchor="start" x="773" y="-842.3" font-family="Times,serif" font-size="14.00">zipcode :character varying</text>
<text text-anchor="start" x="773" y="-827.3" font-family="Times,serif" font-size="14.00">city :character varying</text>
<text text-anchor="start" x="773" y="-812.3" font-family="Times,serif" font-size="14.00">lat :double precision</text>
<text text-anchor="start" x="773" y="-797.3" font-family="Times,serif" font-size="14.00">long :double precision</text>
<text text-anchor="start" x="773" y="-782.3" font-family="Times,serif" font-size="14.00">phone :character varying</text>
<text text-anchor="start" x="773" y="-767.3" font-family="Times,serif" font-size="14.00">infos :text</text>
<text text-anchor="start" x="773" y="-752.3" font-family="Times,serif" font-size="14.00">created_at :timestamp without time zone</text>
<text text-anchor="start" x="773" y="-737.3" font-family="Times,serif" font-size="14.00">updated_at :timestamp without time zone</text>
<text text-anchor="start" x="773" y="-722.3" font-family="Times,serif" font-size="14.00">region_id :bigint</text>
</g>
<!-- Place&#45;&gt;Atelier -->
<g id="edge10" class="edge"><title>Place&#45;&gt;Atelier</title>
<path fill="none" stroke="#83280f" d="M903.878,-706.173C911.975,-625.112 914.719,-514.162 887,-421 865.323,-348.143 820.776,-276.428 778.73,-219.968"/>
<ellipse fill="none" stroke="#83280f" cx="903.437" cy="-710.438" rx="4" ry="4"/>
<polygon fill="#83280f" stroke="#83280f" points="778.559,-219.742 776.143,-209.045 775.553,-215.746 772.547,-211.75 772.547,-211.75 772.547,-211.75 775.553,-215.746 768.951,-214.456 778.559,-219.742 778.559,-219.742"/>
</g>
<!-- Place&#45;&gt;Event -->
<g id="edge9" class="edge"><title>Place&#45;&gt;Event</title>
<path fill="none" stroke="#7d27aa" d="M833.722,-706.75C828.314,-695.355 822.79,-683.718 817.306,-672.163"/>
<ellipse fill="none" stroke="#7d27aa" cx="835.573" cy="-710.649" rx="4.00002" ry="4.00002"/>
<polygon fill="#7d27aa" stroke="#7d27aa" points="817.207,-671.955 816.984,-660.991 815.063,-667.438 812.919,-662.921 812.919,-662.921 812.919,-662.921 815.063,-667.438 808.854,-664.85 817.207,-671.955 817.207,-671.955"/>
</g>
<!-- Item&#45;&gt;Metier -->
<g id="edge11" class="edge"><title>Item&#45;&gt;Metier</title>
<path fill="none" stroke="#663a0b" d="M1158.14,-182.586C1144.95,-201.356 1130.47,-221.471 1116.67,-240.226"/>
<polygon fill="#663a0b" stroke="#663a0b" points="1158.17,-182.542 1167.59,-176.931 1161.04,-178.446 1163.91,-174.35 1163.91,-174.35 1163.91,-174.35 1161.04,-178.446 1160.22,-171.769 1158.17,-182.542 1158.17,-182.542"/>
<polygon fill="#663a0b" stroke="#663a0b" points="1116.58,-240.339 1107.02,-245.707 1113.61,-244.36 1110.64,-248.382 1110.64,-248.382 1110.64,-248.382 1113.61,-244.36 1114.26,-251.056 1116.58,-240.339 1116.58,-240.339"/>
</g>
<!-- Event&#45;&gt;Metier -->
<g id="edge12" class="edge"><title>Event&#45;&gt;Metier</title>
<path fill="none" stroke="#4de57b" d="M886.315,-443.916C910.204,-426.118 934.772,-407.815 957.537,-390.855"/>
<polygon fill="#4de57b" stroke="#4de57b" points="886.041,-444.12 875.333,-446.485 882.031,-447.107 878.021,-450.094 878.021,-450.094 878.021,-450.094 882.031,-447.107 880.71,-453.703 886.041,-444.12 886.041,-444.12"/>
<polygon fill="#4de57b" stroke="#4de57b" points="957.818,-390.645 968.526,-388.28 961.828,-387.658 965.838,-384.671 965.838,-384.671 965.838,-384.671 961.828,-387.658 963.149,-381.062 957.818,-390.645 957.818,-390.645"/>
</g>
</g>
</svg>
